<svg xmlns="http://www.w3.org/2000/svg" width="90" viewBox="0 0 90 90" height="90" version="1.0"><path fill="#8C52FF" d="M 36.429688 0 C 30.511719 0 25.714844 4.796875 25.714844 10.714844 L 25.714844 17.144531 L 8.570312 17.144531 C 3.835938 17.144531 0 20.980469 0 25.714844 L 0 42.855469 L 6.429688 42.855469 C 12.347656 42.855469 17.144531 47.652344 17.144531 53.570312 C 17.144531 59.488281 12.347656 64.285156 6.429688 64.285156 L 0 64.285156 L 0 81.429688 C 0 86.164062 3.835938 90 8.570312 90 L 25.714844 90 L 25.714844 83.570312 C 25.714844 77.652344 30.511719 72.855469 36.429688 72.855469 C 42.347656 72.855469 47.144531 77.652344 47.144531 83.570312 L 47.144531 90 L 64.285156 90 C 69.019531 90 72.855469 86.164062 72.855469 81.429688 L 72.855469 64.285156 L 79.285156 64.285156 C 85.203125 64.285156 90 59.488281 90 53.570312 C 90 47.652344 85.203125 42.855469 79.285156 42.855469 L 72.855469 42.855469 L 72.855469 25.714844 C 72.855469 20.980469 69.019531 17.144531 64.285156 17.144531 L 47.144531 17.144531 L 47.144531 10.714844 C 47.144531 4.796875 42.347656 0 36.429688 0 Z M 36.429688 0"/></svg>