<svg  viewBox="0 0 27 23"  xmlns="http://www.w3.org/2000/svg">
<path d="M9.8405 12.689C9.8405 12.4008 9.56616 12.1674 9.22766 12.1674H7.08907C6.75096 12.1674 6.47656 12.4008 6.47656 12.689V14.5105C6.47656 14.799 6.75096 15.0325 7.08907 15.0325H9.22766C9.56616 15.0325 9.8405 14.799 9.8405 14.5105V12.689Z" />
<path d="M15.1839 12.689C15.1839 12.4008 14.9095 12.1674 14.5717 12.1674H12.4328C12.0947 12.1674 11.8203 12.4008 11.8203 12.689V14.5105C11.8203 14.799 12.0947 15.0325 12.4328 15.0325H14.5717C14.9095 15.0325 15.1839 14.799 15.1839 14.5105V12.689Z" />
<path d="M20.528 12.689C20.528 12.4008 20.2536 12.1674 19.9155 12.1674H17.7769C17.4384 12.1674 17.1641 12.4008 17.1641 12.689V14.5105C17.1641 14.799 17.4384 15.0325 17.7769 15.0325H19.9155C20.2536 15.0325 20.528 14.799 20.528 14.5105V12.689Z" />
<path d="M9.8405 17.2423C9.8405 16.9537 9.56616 16.7205 9.22766 16.7205H7.08907C6.75096 16.7205 6.47656 16.9537 6.47656 17.2423V19.0635C6.47656 19.3518 6.75096 19.5852 7.08907 19.5852H9.22766C9.56616 19.5852 9.8405 19.3517 9.8405 19.0635V17.2423Z" />
<path d="M15.1839 17.2423C15.1839 16.9537 14.9095 16.7205 14.5717 16.7205H12.4328C12.0947 16.7205 11.8203 16.9537 11.8203 17.2423V19.0635C11.8203 19.3518 12.0947 19.5852 12.4328 19.5852H14.5717C14.9095 19.5852 15.1839 19.3517 15.1839 19.0635V17.2423Z" />
<path d="M20.528 17.2423C20.528 16.9537 20.2536 16.7205 19.9158 16.7205H17.7769C17.4384 16.7205 17.1641 16.9537 17.1641 17.2423V19.0635C17.1641 19.3518 17.4384 19.5852 17.7769 19.5852H19.9158C20.2536 19.5852 20.528 19.3517 20.528 19.0635V17.2423Z" />
<path d="M24.3522 2.56095V5.34318C24.3522 6.60072 23.1546 7.6141 21.6786 7.6141H19.992C18.5159 7.6141 17.3024 6.60072 17.3024 5.34318V2.55096H9.70055V5.34318C9.70055 6.60072 8.48714 7.6141 7.01123 7.6141H5.32432C3.84835 7.6141 2.65082 6.60072 2.65082 5.34318V2.56095C1.36081 2.59408 0.300781 3.50338 0.300781 4.62103V20.9262C0.300781 22.0649 1.38421 23 2.7209 23H24.2821C25.6168 23 26.7022 22.0629 26.7022 20.9262V4.62103C26.7022 3.50338 25.6422 2.59408 24.3522 2.56095ZM23.5689 19.9108C23.5689 20.4029 23.1005 20.8021 22.5226 20.8021H4.43431C3.85643 20.8021 3.38806 20.4029 3.38806 19.9108V11.4886C3.38806 10.9964 3.85637 10.5971 4.43431 10.5971H22.5226C23.1004 10.5971 23.5688 10.9964 23.5688 11.4886L23.5689 19.9108Z" />
<path d="M5.31928 6.12255H6.98756C7.49393 6.12255 7.9045 5.77332 7.9045 5.34197V0.780861C7.9045 0.349463 7.49393 0 6.98756 0H5.31928C4.81286 0 4.40234 0.349463 4.40234 0.780861V5.34197C4.40234 5.77332 4.81286 6.12255 5.31928 6.12255Z" />
<path d="M19.9716 6.12255H21.6399C22.1459 6.12255 22.5565 5.77332 22.5565 5.34197V0.780861C22.5565 0.349463 22.1459 0 21.6399 0H19.9716C19.4653 0 19.0547 0.349463 19.0547 0.780861V5.34197C19.0547 5.77332 19.4653 6.12255 19.9716 6.12255Z" />
</svg>
