<svg width="31" height="35" viewBox="0 0 31 35" fill="none" xmlns="http://www.w3.org/2000/svg">
<path d="M16.1121 3.6415C15.7222 3.45283 15.2809 3.45283 14.891 3.6415L4.04099 8.8915C3.47108 9.16726 3.10156 9.79995 3.10156 10.5C3.10156 11.2 3.47108 11.8327 4.04099 12.1085L8.13964 14.0917C8.28868 13.9011 8.47551 13.7458 8.69099 13.6415L14.891 10.6415C15.6778 10.2608 16.589 10.6723 16.9262 11.5607C17.2634 12.449 16.899 13.4778 16.1121 13.8585L11.8849 15.904L14.891 17.3585C15.2809 17.5472 15.7222 17.5472 16.1121 17.3585L26.9621 12.1085C27.532 11.8327 27.9016 11.2 27.9016 10.5C27.9016 9.79995 27.532 9.16726 26.9621 8.8915L16.1121 3.6415Z" fill="#B6BDF0"/>
<path d="M5.13213 16.4443L7.75156 17.7117V24.8896C7.22027 24.7536 6.6775 24.6518 6.12516 24.5864C5.39702 24.5002 4.82159 23.8505 4.74524 23.0284C4.68328 22.3612 4.65156 21.6843 4.65156 20.9997C4.65156 19.4308 4.81805 17.9051 5.13213 16.4443Z" fill="#B6BDF0"/>
<path d="M14.4165 29.0019C13.3735 27.8475 12.1717 26.8772 10.8516 26.1364V19.2117L13.6698 20.5754C14.8395 21.1414 16.1636 21.1414 17.3333 20.5754L25.871 16.4443C26.1851 17.9051 26.3516 19.4308 26.3516 20.9997C26.3516 21.6843 26.3198 22.3612 26.2579 23.0284C26.1815 23.8505 25.6061 24.5002 24.878 24.5864C21.6651 24.9667 18.7758 26.5789 16.5866 29.0019C15.9839 29.669 15.0192 29.669 14.4165 29.0019Z" fill="#B6BDF0"/>
<path d="M9.30156 31.5C10.1576 31.5 10.8516 30.7165 10.8516 29.75V26.1364C9.87717 25.5897 8.83838 25.168 7.75156 24.8896V29.75C7.75156 30.7165 8.44552 31.5 9.30156 31.5Z" fill="#B6BDF0"/>
</svg>
