<svg width="25" height="25" viewBox="0 0 25 25" fill="none" xmlns="http://www.w3.org/2000/svg">
<g clip-path="url(#clip0)">
<path d="M23.9181 19.1048C23.4434 19.6748 22.74 20.0046 21.9981 20.0048H2.99812C2.25628 20.0046 1.55287 19.6748 1.07812 19.1048L10.2481 11.4648L11.1981 12.1149C11.9807 12.6549 13.0156 12.6549 13.7981 12.1149L14.7482 11.4648L23.9181 19.1048Z" fill="#1E88E5"/>
<path d="M24.0613 5.09495L14.7514 11.4649L13.8014 12.1149C13.0188 12.6549 11.9839 12.6549 11.2013 12.1149L10.2513 11.4649L0.941406 5.08492C1.40987 4.4094 2.17933 4.006 3.00142 4.00492H22.0014C22.8272 4.00056 23.6004 4.40968 24.0613 5.09495Z" fill="#64B5F6"/>
<path d="M10.25 11.4649L1.08003 19.1049C0.7047 18.6563 0.499341 18.0898 0.500044 17.5049V6.50494C0.496998 5.99762 0.6507 5.50168 0.940059 5.08496L10.25 11.4649Z" fill="#2196F3"/>
<path d="M24.5 6.50472V17.5047C24.5007 18.0896 24.2953 18.6561 23.92 19.1047L14.75 11.4647L24.06 5.09473C24.3479 5.50844 24.5015 6.00068 24.5 6.50472Z" fill="#2196F3"/>
</g>
<defs>
<clipPath id="clip0">
<rect width="24" height="24" fill="white" transform="translate(0.5 0.00488281)"/>
</clipPath>
</defs>
</svg>
