<svg width="36" height="34" viewBox="0 0 36 34" fill="none" xmlns="http://www.w3.org/2000/svg">
<path fill-rule="evenodd" clip-rule="evenodd" d="M9.00156 3.3999C9.99568 3.3999 10.8016 4.16102 10.8016 5.0999V6.7999H12.6016C13.5957 6.7999 14.4016 7.56102 14.4016 8.4999C14.4016 9.43879 13.5957 10.1999 12.6016 10.1999H10.8016V11.8999C10.8016 12.8388 9.99568 13.5999 9.00156 13.5999C8.00745 13.5999 7.20156 12.8388 7.20156 11.8999V10.1999H5.40156C4.40745 10.1999 3.60156 9.43879 3.60156 8.4999C3.60156 7.56102 4.40745 6.7999 5.40156 6.7999H7.20156V5.0999C7.20156 4.16102 8.00745 3.3999 9.00156 3.3999ZM9.00156 20.3999C9.99568 20.3999 10.8016 21.161 10.8016 22.0999V23.7999H12.6016C13.5957 23.7999 14.4016 24.561 14.4016 25.4999C14.4016 26.4388 13.5957 27.1999 12.6016 27.1999H10.8016V28.8999C10.8016 29.8388 9.99568 30.5999 9.00156 30.5999C8.00745 30.5999 7.20156 29.8388 7.20156 28.8999V27.1999H5.40156C4.40745 27.1999 3.60156 26.4388 3.60156 25.4999C3.60156 24.561 4.40745 23.7999 5.40156 23.7999H7.20156V22.0999C7.20156 21.161 8.00745 20.3999 9.00156 20.3999Z" fill="#B6BDF0"/>
<path fill-rule="evenodd" clip-rule="evenodd" d="M21.6015 3.3999C22.4182 3.3999 23.1325 3.91922 23.3415 4.66489L25.4641 12.2381L31.501 15.5274C32.0582 15.831 32.4015 16.3924 32.4015 16.9999C32.4015 17.6074 32.0582 18.1688 31.501 18.4724L25.4641 21.7617L23.3415 29.3349C23.1325 30.0806 22.4182 30.5999 21.6015 30.5999C20.7848 30.5999 20.0704 30.0806 19.8614 29.3349L17.7388 21.7617L11.7021 18.4724C11.1449 18.1688 10.8016 17.6074 10.8016 16.9999C10.8016 16.3924 11.1449 15.831 11.7021 15.5274L17.7388 12.2381L19.8614 4.66489C20.0704 3.91922 20.7848 3.3999 21.6015 3.3999Z" fill="#B6BDF0"/>
</svg>
