<svg  viewBox="0 0 36 36"  xmlns="http://www.w3.org/2000/svg">
<path d="M18 14.6249C16.1361 14.6249 14.625 16.136 14.625 17.9999C14.625 19.8638 16.1361 21.3749 18 21.3749C19.8639 21.3749 21.375 19.8638 21.375 17.9999C21.375 16.136 19.8639 14.6249 18 14.6249Z"/>
<path fill-rule="evenodd" clip-rule="evenodd" d="M18 8.24994C14.0733 8.24994 10.542 9.82702 7.99743 11.78C6.72348 12.7577 5.67816 13.8436 4.94473 14.9005C4.22529 15.9371 3.75 17.0272 3.75 17.9999C3.75 18.9727 4.22529 20.0627 4.94473 21.0994C5.67816 22.1563 6.72348 23.2421 7.99743 24.2198C10.542 26.1728 14.0733 27.7499 18 27.7499C21.9267 27.7499 25.458 26.1728 28.0026 24.2198C29.2765 23.2421 30.3219 22.1563 31.0552 21.0994C31.7746 20.0627 32.25 18.9727 32.25 17.9999C32.25 17.0272 31.7746 15.9371 31.0552 14.9005C30.3219 13.8436 29.2765 12.7577 28.0026 11.78C25.458 9.82702 21.9267 8.24994 18 8.24994ZM12.375 17.9999C12.375 14.8933 14.8934 12.3749 18 12.3749C21.1066 12.3749 23.625 14.8933 23.625 17.9999C23.625 21.1066 21.1066 23.6249 18 23.6249C14.8934 23.6249 12.375 21.1066 12.375 17.9999Z"/>
</svg>
