<svg width="48" height="48" viewBox="0 0 48 48" fill="none" xmlns="http://www.w3.org/2000/svg">
<circle cx="24" cy="24" r="24" fill="white"/>
<path d="M21.1455 29.4961V28.5586C21.1455 27.4844 21.3408 26.5908 21.7314 25.8779C22.1221 25.165 22.8057 24.4277 23.7822 23.666C24.9443 22.748 25.6914 22.0352 26.0234 21.5273C26.3652 21.0195 26.5361 20.4141 26.5361 19.7109C26.5361 18.8906 26.2627 18.2607 25.7158 17.8213C25.1689 17.3818 24.3828 17.1621 23.3574 17.1621C22.4297 17.1621 21.5703 17.2939 20.7793 17.5576C19.9883 17.8213 19.2168 18.1387 18.4648 18.5098L17.2344 15.9316C19.2168 14.8281 21.3408 14.2764 23.6064 14.2764C25.5205 14.2764 27.0391 14.7451 28.1621 15.6826C29.2852 16.6201 29.8467 17.9141 29.8467 19.5645C29.8467 20.2969 29.7393 20.9512 29.5244 21.5273C29.3096 22.0938 28.9824 22.6357 28.543 23.1533C28.1133 23.6709 27.3662 24.3447 26.3018 25.1748C25.3936 25.8877 24.7832 26.4785 24.4707 26.9473C24.168 27.416 24.0166 28.0459 24.0166 28.8369V29.4961H21.1455ZM20.5449 34.1689C20.5449 32.6943 21.2627 31.957 22.6982 31.957C23.4014 31.957 23.9385 32.1523 24.3096 32.543C24.6807 32.9238 24.8662 33.4658 24.8662 34.1689C24.8662 34.8623 24.6758 35.4141 24.2949 35.8242C23.9238 36.2246 23.3916 36.4248 22.6982 36.4248C22.0049 36.4248 21.4727 36.2295 21.1016 35.8389C20.7305 35.4385 20.5449 34.8818 20.5449 34.1689Z" fill="#2B2A2A"/>
</svg>
