<svg width="24" height="20" viewBox="0 0 24 20" fill="none" xmlns="http://www.w3.org/2000/svg">
<path fill-rule="evenodd" clip-rule="evenodd" d="M2.19995 0.200194C2.97315 0.200194 3.59995 0.826996 3.59995 1.60019L3.59995 18.4002C3.59995 19.1734 2.97315 19.8002 2.19995 19.8002C1.42675 19.8002 0.799949 19.1734 0.799949 18.4002L0.79995 1.60019C0.79995 0.826996 1.42675 0.200194 2.19995 0.200194ZM12.9899 4.81025C13.5366 5.35698 13.5366 6.24341 12.9899 6.79014L11.1799 8.60019L21.8 8.60019C22.5731 8.60019 23.2 9.22699 23.2 10.0002C23.2 10.7734 22.5731 11.4002 21.8 11.4002L11.1798 11.4002L12.9899 13.2102C13.5366 13.757 13.5366 14.6434 12.9899 15.1901C12.4432 15.7369 11.5567 15.7369 11.01 15.1901L6.81 10.9901C6.54745 10.7276 6.39995 10.3715 6.39995 10.0002C6.39995 9.62889 6.54745 9.27279 6.81 9.01024L11.01 4.81024C11.5567 4.26351 12.4432 4.26351 12.9899 4.81025Z" fill="#7660DC"/>
</svg>
