<svg width="40" height="40" viewBox="0 0 40 40" fill="none" xmlns="http://www.w3.org/2000/svg">
<g clip-path="url(#clip0_677_12489)">
<path d="M1.7305 18.2705C0.7764 18.2705 0 19.0469 0 20.0011C0 20.9541 0.775789 21.7305 1.7305 21.7305H9.01552V18.2705H1.7305Z" fill="#7660DC"/>
<path d="M34.2348 4.50879H14.7839C11.6036 4.50879 9.01622 7.09496 9.01622 10.2746V10.4551V18.2699H24.6022L21.269 14.9364C20.5954 14.2616 20.5954 13.1639 21.269 12.4894C21.5957 12.1626 22.0295 11.9825 22.4914 11.9825C22.9551 11.9825 23.389 12.1628 23.7163 12.4894L30.0034 18.7768C30.1612 18.934 30.286 19.1204 30.3753 19.3314C30.4677 19.5586 30.5105 19.778 30.5105 20.001C30.5105 20.2235 30.4683 20.4431 30.382 20.6534C30.2897 20.8757 30.1648 21.061 30.0082 21.2207L23.7162 27.5114C23.3876 27.8381 22.9526 28.0174 22.4913 28.0174C22.03 28.0174 21.5937 27.8381 21.2683 27.5114C20.5947 26.8353 20.5947 25.7377 21.2683 25.0635L24.6021 21.7303H9.01611V23.6226V27.0972V29.7263C9.01611 32.9047 11.6036 35.4909 14.7838 35.4909H34.2347C37.4149 35.4909 40.0005 32.9047 40.0005 29.7263V10.2753C40.0006 7.09496 37.415 4.50879 34.2348 4.50879Z" fill="#7660DC"/>
</g>
<defs>
<clipPath id="clip0_677_12489">
<rect width="40" height="40" fill="white"/>
</clipPath>
</defs>
</svg>
