<svg viewBox="0 0 26 34"  xmlns="http://www.w3.org/2000/svg">
<path fill-rule="evenodd" clip-rule="evenodd" d="M14.6626 2.09814C14.6626 1.17932 13.9178 0.434448 12.9989 0.434448C12.08 0.434448 11.3352 1.17932 11.3352 2.09814V3.34591H10.4079C6.70601 3.34591 3.64215 6.22411 3.41108 9.91871L3.04339 15.7973C2.90321 18.0386 2.15074 20.1986 0.867934 22.0418C-0.291126 23.7071 0.740729 26.0074 2.75534 26.2491L8.42375 26.9294V28.7172C8.42375 31.244 10.4721 33.2923 12.9989 33.2923C15.5257 33.2923 17.574 31.244 17.574 28.7172V26.9294L23.2424 26.2491C25.2571 26.0074 26.289 23.7071 25.1299 22.0418C23.847 20.1986 23.0945 18.0386 22.9544 15.7973L22.5867 9.91871C22.3557 6.22411 19.2918 3.34591 15.5899 3.34591H14.6626V2.09814ZM10.9193 28.7172C10.9193 29.8658 11.8503 30.7968 12.9989 30.7968C14.1475 30.7968 15.0785 29.8658 15.0785 28.7172V27.4694H10.9193V28.7172Z" />
</svg>
