<svg  viewBox="0 0 27 25"  xmlns="http://www.w3.org/2000/svg">
<path d="M26.5579 13.4765C26.7938 13.3455 26.94 13.0969 26.94 12.8272C26.94 12.5574 26.7938 12.3088 26.5579 12.1778L23.1673 10.2942C16.4873 6.58303 9.44544 3.56429 2.1516 1.28496L1.16358 0.976198C0.938036 0.905721 0.692407 0.946753 0.502028 1.08673C0.311649 1.2267 0.199219 1.44889 0.199219 1.68518V10.2274C0.199219 10.6224 0.508461 10.9483 0.902976 10.9691L2.40289 11.0482C6.05985 11.2405 9.6945 11.7366 13.2694 12.5309L13.6234 12.6097C13.7021 12.6272 13.7363 12.6593 13.7553 12.6848C13.7792 12.7172 13.7978 12.7668 13.7978 12.8272C13.7978 12.8875 13.7792 12.9372 13.7553 12.9695C13.7363 12.995 13.7021 13.0273 13.6234 13.0447L13.2694 13.1234C9.69451 13.9177 6.05984 14.4138 2.40286 14.6063L0.902976 14.6852C0.508461 14.706 0.199219 15.0319 0.199219 15.427V23.9691C0.199219 24.2055 0.311649 24.4276 0.502028 24.5677C0.692407 24.7076 0.938036 24.7486 1.16358 24.6781L2.15162 24.3694C9.44544 22.09 16.4873 19.0713 23.1673 15.3601L26.5579 13.4765Z" />
</svg>
