<svg viewBox="0 0 28 28" xmlns="http://www.w3.org/2000/svg">
<path d="M14 0C6.28009 0 0 6.28009 0 14C0 21.7199 6.28009 28 14 28C21.7199 28 28 21.7199 28 14C28 6.28009 21.7199 0 14 0ZM20.6582 21.2414C20.4307 21.4689 20.132 21.5834 19.8334 21.5834C19.5348 21.5834 19.2359 21.4689 19.0086 21.2414L13.1752 15.4082C12.9558 15.1901 12.8334 14.8936 12.8334 14.5834V7C12.8334 6.35486 13.3559 5.8334 14 5.8334C14.6441 5.8334 15.1666 6.35486 15.1666 7V14.1004L20.6582 19.5918C21.1143 20.0481 21.1143 20.7853 20.6582 21.2414Z" />
</svg>
