<svg viewBox="0 0 32 35" xmlns="http://www.w3.org/2000/svg">
<path d="M16 5.37012C13.2386 5.37012 11 7.77451 11 10.7405C11 13.7065 13.2386 16.1109 16 16.1109C18.7615 16.1109 21 13.7065 21 10.7405C21 7.77451 18.7615 5.37012 16 5.37012Z" />
<path d="M10.6655 18.9756C7.9041 18.9756 5.66553 21.3799 5.66553 24.346V26.0477C5.66553 27.1264 6.39337 28.0461 7.38455 28.2199C13.0897 29.2204 18.9081 29.2204 24.6131 28.2199C25.6043 28.0461 26.3322 27.1264 26.3322 26.0477V24.346C26.3322 21.3799 24.0937 18.9756 21.3322 18.9756H20.8777C20.6317 18.9756 20.3873 19.0174 20.1534 19.0993L18.9994 19.5042C17.0497 20.1879 14.9481 20.1879 12.9983 19.5042L11.8443 19.0993C11.6104 19.0174 11.366 18.9756 11.12 18.9756H10.6655Z" />
</svg>
