<svg viewBox="0 0 23 16" xmlns="http://www.w3.org/2000/svg">
<path fill-rule="evenodd" clip-rule="evenodd" d="M14.1417 0.45133C11.4264 0.166039 8.69004 0.144825 5.97076 0.387954L4.155 0.550303C2.65451 0.684472 1.44214 1.83078 1.22422 3.32141C0.792449 6.27465 0.792449 9.27508 1.22422 12.2283C1.44214 13.719 2.65451 14.8653 4.155 14.9994L5.97076 15.1618C8.69004 15.405 11.4264 15.3837 14.1417 15.0985L14.8393 15.0251C16.2674 14.8751 17.4229 13.812 17.7011 12.4166L21.1987 14.2747C21.4537 14.4103 21.7596 14.4088 22.0134 14.271C22.2672 14.1332 22.435 13.8773 22.4602 13.5896L22.4888 13.2639C22.809 9.61153 22.809 5.9382 22.4888 2.28592L22.4602 1.96009C22.435 1.6724 22.2672 1.41652 22.0134 1.2787C21.7596 1.14088 21.4537 1.13949 21.1987 1.27498L17.7011 3.13318C17.4229 1.73773 16.2674 0.67468 14.8393 0.524625L14.1417 0.45133ZM6.1241 2.10299C8.73246 1.86978 11.3573 1.89013 13.9617 2.16377L14.6593 2.23708C15.3614 2.31084 15.9241 2.85121 16.0263 3.54971C16.4358 6.35156 16.4358 9.19817 16.0263 12C15.9241 12.6985 15.3614 13.2389 14.6593 13.3126L13.9617 13.386C11.3573 13.6595 8.73247 13.68 6.1241 13.4467L4.30835 13.2844C3.60163 13.2212 3.03061 12.6813 2.92798 11.9792C2.52036 9.19117 2.52036 6.35857 2.92798 3.57051C3.03061 2.86843 3.60163 2.32853 4.30835 2.26534L6.1241 2.10299ZM17.9272 4.96285C18.098 6.83357 18.098 8.71616 17.9272 10.5869L20.8509 12.1403C21.0591 9.23375 21.0591 6.31598 20.8509 3.4095L17.9272 4.96285Z" />
<path fill-rule="evenodd" clip-rule="evenodd" d="M14.1417 0.45133C11.4264 0.166039 8.69004 0.144825 5.97076 0.387954L4.155 0.550303C2.65451 0.684472 1.44214 1.83078 1.22422 3.32141C0.792449 6.27465 0.792449 9.27508 1.22422 12.2283C1.44214 13.719 2.65451 14.8653 4.155 14.9994L5.97076 15.1618C8.69004 15.405 11.4264 15.3837 14.1417 15.0985L14.8393 15.0251C16.2674 14.8751 17.4229 13.812 17.7011 12.4166L21.1987 14.2747C21.4537 14.4103 21.7596 14.4088 22.0134 14.271C22.2672 14.1332 22.435 13.8773 22.4602 13.5896L22.4888 13.2639C22.809 9.61153 22.809 5.9382 22.4888 2.28592L22.4602 1.96009C22.435 1.6724 22.2672 1.41652 22.0134 1.2787C21.7596 1.14088 21.4537 1.13949 21.1987 1.27498L17.7011 3.13318C17.4229 1.73773 16.2674 0.67468 14.8393 0.524625L14.1417 0.45133ZM6.1241 2.10299C8.73246 1.86978 11.3573 1.89013 13.9617 2.16377L14.6593 2.23708C15.3614 2.31084 15.9241 2.85121 16.0263 3.54971C16.4358 6.35156 16.4358 9.19817 16.0263 12C15.9241 12.6985 15.3614 13.2389 14.6593 13.3126L13.9617 13.386C11.3573 13.6595 8.73247 13.68 6.1241 13.4467L4.30835 13.2844C3.60163 13.2212 3.03061 12.6813 2.92798 11.9792C2.52036 9.19117 2.52036 6.35857 2.92798 3.57051C3.03061 2.86843 3.60163 2.32853 4.30835 2.26534L6.1241 2.10299ZM17.9272 4.96285C18.098 6.83357 18.098 8.71616 17.9272 10.5869L20.8509 12.1403C21.0591 9.23375 21.0591 6.31598 20.8509 3.4095L17.9272 4.96285Z" />
</svg>
