<svg  viewBox="0 0 26 18" xmlns="http://www.w3.org/2000/svg">
<path fill-rule="evenodd" clip-rule="evenodd" d="M6.28884 0.406164C9.42588 0.125671 12.5827 0.150151 15.715 0.479257L16.5254 0.564404C18.0719 0.726897 19.3166 1.89999 19.5755 3.42679L23.9467 1.10444C24.243 0.94707 24.5983 0.948684 24.8931 1.10876C25.1879 1.26884 25.3827 1.56606 25.4121 1.90022L25.4453 2.27867C25.8171 6.52088 25.8171 10.7875 25.4453 15.0298L25.4121 15.4082C25.3827 15.7423 25.1879 16.0395 24.8931 16.1997C24.5983 16.3597 24.243 16.3614 23.9467 16.2039L19.5755 13.8817C19.3166 15.4085 18.0719 16.5815 16.5254 16.7441L15.715 16.8291C12.5827 17.1583 9.42588 17.1827 6.28884 16.9023L4.1798 16.7137C2.5906 16.5717 1.30657 15.3575 1.07576 13.7787C0.578915 10.3805 0.578915 6.92795 1.07576 3.52966C1.30657 1.9509 2.5906 0.73683 4.1798 0.594737L6.28884 0.406164ZM19.8222 11.8097C19.9291 11.8265 20.0353 11.8611 20.1362 11.9148L23.5429 13.7247C23.7846 10.3488 23.7846 6.95968 23.5429 3.58374L20.1362 5.39367C20.0353 5.44732 19.9291 5.48192 19.8222 5.49872C20.0091 7.59822 20.0091 9.71022 19.8222 11.8097Z" />
</svg>
