<svg width="24" height="14" viewBox="0 0 24 14" fill="none" xmlns="http://www.w3.org/2000/svg">
<path d="M20 8.29304V7.67602L23.22 3.65002C23.7243 3.01876 23.9993 2.23496 24 1.42702C23.9994 0.639148 23.3609 0.000570188 22.573 7.68838e-06H19.065C18.5233 -0.00182044 18.0337 0.322508 17.824 0.822008C17.1456 2.68796 16.253 4.46888 15.164 6.12901C14.8288 6.39202 14.367 6.42371 13.999 6.20902V1.09402C13.9957 0.491586 13.5084 0.00385144 12.906 7.68838e-06H8.49999C8.22385 -0.000507937 7.9996 0.222992 7.99908 0.499133C7.99885 0.632258 8.05172 0.759992 8.14599 0.854023L8.41997 1.12801C8.79211 1.49794 9.00094 2.00129 8.99996 2.52601V6.32602C8.95308 6.37388 8.8927 6.40632 8.82694 6.41902C8.64141 6.39038 8.47294 6.29424 8.35392 6.14902C7.06706 4.28218 5.92763 2.31788 4.94592 0.274039C4.86075 0.105945 4.68835 5.45376e-05 4.49991 5.45376e-05H1.29999C0.582049 5.45376e-05 1.81072e-06 0.582054 1.81072e-06 1.30004V1.55504C-0.000841939 2.60973 0.293205 3.64365 0.849002 4.54004C3.531 8.85502 7.209 14 9.50002 14H12.771C13.4493 13.9989 13.9989 13.4493 14 12.771V11.915C13.9998 11.4102 14.4088 11.0008 14.9136 11.0006C15.1565 11.0005 15.3894 11.0971 15.561 11.269L17.637 13.345C18.0565 13.7659 18.6268 14.0017 19.221 14H22.789C23.4567 13.999 23.9972 13.457 23.9962 12.7892C23.9957 12.4696 23.8688 12.1632 23.643 11.937L20 8.29304Z" fill="#01579B"/>
</svg>
