<svg width="24" height="25" viewBox="0 0 24 25" fill="none" xmlns="http://www.w3.org/2000/svg">
<g clip-path="url(#clip0)">
<path d="M12.003 0.00390625H11.997C5.3805 0.00390625 0 5.38591 0 12.0039C0 14.6289 0.846 17.0619 2.2845 19.0374L0.789 23.4954L5.4015 22.0209C7.299 23.2779 9.5625 24.0039 12.003 24.0039C18.6195 24.0039 24 18.6204 24 12.0039C24 5.38741 18.6195 0.00390625 12.003 0.00390625Z" fill="#4CAF50"/>
<path d="M18.9848 16.9497C18.6953 17.7672 17.5463 18.4452 16.6298 18.6432C16.0028 18.7767 15.1838 18.8832 12.4268 17.7402C8.90034 16.2792 6.62934 12.6957 6.45234 12.4632C6.28284 12.2307 5.02734 10.5657 5.02734 8.84368C5.02734 7.12168 5.90184 6.28318 6.25434 5.92318C6.54384 5.62768 7.02234 5.49268 7.48134 5.49268C7.62984 5.49268 7.76334 5.50018 7.88334 5.50618C8.23584 5.52118 8.41284 5.54218 8.64534 6.09868C8.93484 6.79618 9.63984 8.51818 9.72384 8.69518C9.80934 8.87218 9.89484 9.11218 9.77484 9.34468C9.66234 9.58468 9.56334 9.69118 9.38634 9.89518C9.20934 10.0992 9.04134 10.2552 8.86434 10.4742C8.70234 10.6647 8.51934 10.8687 8.72334 11.2212C8.92734 11.5662 9.63234 12.7167 10.6703 13.6407C12.0098 14.8332 13.0958 15.2142 13.4843 15.3762C13.7738 15.4962 14.1188 15.4677 14.3303 15.2427C14.5988 14.9532 14.9303 14.4732 15.2678 14.0007C15.5078 13.6617 15.8108 13.6197 16.1288 13.7397C16.4528 13.8522 18.1673 14.6997 18.5198 14.8752C18.8723 15.0522 19.1048 15.1362 19.1903 15.2847C19.2743 15.4332 19.2743 16.1307 18.9848 16.9497Z" fill="#FAFAFA"/>
</g>
<defs>
<clipPath id="clip0">
<rect width="24" height="24" fill="white" transform="translate(0 0.00390625)"/>
</clipPath>
</defs>
</svg>
